<svg width="60" height="60" viewBox="0 0 60 60" fill="none" xmlns="http://www.w3.org/2000/svg">
<g clip-path="url(#clip0_168_57)">
<path d="M57.3333 0.222229H2.66661C1.31658 0.222229 0.222168 1.31664 0.222168 2.66667V57.3333C0.222168 58.6834 1.31658 59.7778 2.66661 59.7778H57.3333C58.6833 59.7778 59.7777 58.6834 59.7777 57.3333V2.66667C59.7777 1.31664 58.6833 0.222229 57.3333 0.222229Z" fill="white"/>
<path d="M17.864 25.5627C18.6889 24.4249 19.8124 23.5004 21.2347 22.7893C22.6853 22.0498 24.2924 21.68 26.056 21.68C28.1324 21.68 30.0098 22.1778 31.688 23.1733C33.3662 24.1689 34.6889 25.5911 35.656 27.44C36.6231 29.2604 37.1067 31.3511 37.1067 33.712C37.1067 36.0729 36.6231 38.192 35.656 40.0693C34.6889 41.9182 33.352 43.3689 31.6453 44.4213C29.9671 45.4453 28.104 45.9573 26.056 45.9573C24.2356 45.9573 22.6142 45.6017 21.192 44.8906C19.7982 44.1796 18.6889 43.2693 17.864 42.16V45.5733H13V14H17.864V25.5627ZM32.1573 33.712C32.1573 32.0907 31.816 30.6969 31.1333 29.5307C30.4791 28.336 29.5973 27.44 28.488 26.8427C27.4071 26.2169 26.2409 25.904 24.9893 25.904C23.7662 25.904 22.6 26.2169 21.4907 26.8427C20.4098 27.4684 19.528 28.3787 18.8453 29.5733C18.1911 30.768 17.864 32.176 17.864 33.7973C17.864 35.4187 18.1911 36.8409 18.8453 38.064C19.528 39.2587 20.4098 40.1689 21.4907 40.7947C22.6 41.4204 23.7662 41.7333 24.9893 41.7333C26.2409 41.7333 27.4071 41.4204 28.488 40.7947C29.5973 40.1404 30.4791 39.2018 31.1333 37.9787C31.816 36.7556 32.1573 35.3333 32.1573 33.712Z" fill="#1E1E1E"/>
<path d="M46.286 46.2071C44.5757 46.2071 43.1408 45.6317 41.9823 44.481C40.8237 43.3304 40.2444 41.9057 40.2444 40.2071C40.2444 38.5085 40.8237 37.0838 41.9823 35.9331C43.1408 34.7824 44.5757 34.2071 46.286 34.2071C47.9411 34.2071 49.3479 34.7824 50.5065 35.9331C51.6651 37.0838 52.2444 38.5085 52.2444 40.2071C52.2444 41.9057 51.6651 43.3304 50.5065 44.481C49.3479 45.6317 47.9411 46.2071 46.286 46.2071Z" fill="#63FF90"/>
</g>
<defs>
<clipPath id="clip0_168_57">
<rect width="60" height="60" rx="2" fill="white"/>
</clipPath>
</defs>
</svg>
