<svg width="400" height="400" viewBox="0 0 400 400" fill="none" xmlns="http://www.w3.org/2000/svg">
<rect width="400" height="400" fill="white"/>
<path d="M165.4 313.4C152 313.4 140.2 310.6 130 305C119.8 299.2 111.8 290.8 106 279.8C100.2 268.8 97 255.5 96.4 239.9H102.7V308H69.7V89H111.4V198.5L100.3 215.6C101.1 198.8 104.4 184.8 110.2 173.6C116.2 162.4 124.2 154 134.2 148.4C144.2 142.8 155.5 140 168.1 140C179.3 140 189.5 142.1 198.7 146.3C207.9 150.5 215.8 156.4 222.4 164C229 171.4 234 180.1 237.4 190.1C241 200.1 242.8 211 242.8 222.8V229.1C242.8 240.9 241 251.9 237.4 262.1C233.8 272.3 228.6 281.3 221.8 289.1C215 296.7 206.8 302.7 197.2 307.1C187.8 311.3 177.2 313.4 165.4 313.4ZM156.1 278.3C165.1 278.3 172.9 276.1 179.5 271.7C186.3 267.1 191.6 260.9 195.4 253.1C199.2 245.3 201.1 236.3 201.1 226.1C201.1 215.7 199.2 206.7 195.4 199.1C191.6 191.5 186.3 185.6 179.5 181.4C172.9 177.2 165.1 175.1 156.1 175.1C147.9 175.1 140.3 176.9 133.3 180.5C126.5 184.1 120.9 189.4 116.5 196.4C112.3 203.4 110.2 211.8 110.2 221.6V233.6C110.2 243 112.4 251 116.8 257.6C121.2 264.2 126.9 269.3 133.9 272.9C140.9 276.5 148.3 278.3 156.1 278.3Z" fill="#63FF90"/>
<path d="M148.4 302.4C135 302.4 123.2 299.6 113 294C102.8 288.2 94.8 279.8 89 268.8C83.2 257.8 80 244.5 79.4 228.9H85.7V297H52.7V78H94.4V187.5L83.3 204.6C84.1 187.8 87.4 173.8 93.2 162.6C99.2 151.4 107.2 143 117.2 137.4C127.2 131.8 138.5 129 151.1 129C162.3 129 172.5 131.1 181.7 135.3C190.9 139.5 198.8 145.4 205.4 153C212 160.4 217 169.1 220.4 179.1C224 189.1 225.8 200 225.8 211.8V218.1C225.8 229.9 224 240.9 220.4 251.1C216.8 261.3 211.6 270.3 204.8 278.1C198 285.7 189.8 291.7 180.2 296.1C170.8 300.3 160.2 302.4 148.4 302.4ZM139.1 267.3C148.1 267.3 155.9 265.1 162.5 260.7C169.3 256.1 174.6 249.9 178.4 242.1C182.2 234.3 184.1 225.3 184.1 215.1C184.1 204.7 182.2 195.7 178.4 188.1C174.6 180.5 169.3 174.6 162.5 170.4C155.9 166.2 148.1 164.1 139.1 164.1C130.9 164.1 123.3 165.9 116.3 169.5C109.5 173.1 103.9 178.4 99.5 185.4C95.3 192.4 93.2 200.8 93.2 210.6V222.6C93.2 232 95.4 240 99.8 246.6C104.2 253.2 109.9 258.3 116.9 261.9C123.9 265.5 131.3 267.3 139.1 267.3Z" fill="black"/>
<circle cx="306" cy="279" r="40" fill="#1B1B1B"/>
<circle cx="294" cy="267" r="40" fill="#63FF90"/>
</svg>
